# xmcd
# Copyright (C) 1995-1998 Ti Kan
#
# Track frame offsets:
#       150
#       17220
#       32917
#       51455
#       66125
#       82935
#       99470
#       112777
#       132282
#       147952
#       161017
#       178462
#
# Disc length: 2645 seconds
#
# Revision: 2
# Processed by: cddbd v1.4PL0 Copyright (c) Steve Scherf et al.
# Submitted via: CD-Transfer v1.0
#
DISCID=a50a530c
DTITLE=Buffalo Ballet - Soft Music
DYEAR=2002
DGENRE=
TTITLE0=The Good Days Have Gone
TTITLE1=What It's Worth
TTITLE2=Come On In
TTITLE3=Drying My Tears
TTITLE4=Lo Mejor De Lo Mejor
TTITLE5=Beatiful Day
TTITLE6=Out Of The Blue
TTITLE7=Some Kind Of God
TTITLE8=Up and High
TTITLE9=Under The Walnut Tree
TTITLE10=Be Like Summer
TTITLE11=Twin Tones
EXTD=
EXTT0=
EXTT1=
EXTT2=
EXTT3=
EXTT4=
EXTT5=
EXTT6=
EXTT7=
EXTT8=
EXTT9=
EXTT10=
EXTT11=
PLAYORDER=
